<?xml version="1.0" encoding="utf-8"?>
<!-- Generator: Adobe Illustrator 19.0.1, SVG Export Plug-In . SVG Version: 6.00 Build 0)  -->
<svg version="1.1"
	 id="svg2" inkscape:version="0.46" sodipodi:version="0.32" sodipodi:docname="empowered_by_gnu.svg" xmlns:svg="http://www.w3.org/2000/svg" xmlns:cc="http://creativecommons.org/ns#" xmlns:dc="http://purl.org/dc/elements/1.1/" xmlns:inkscape="http://www.inkscape.org/namespaces/inkscape" xmlns:rdf="http://www.w3.org/1999/02/22-rdf-syntax-ns#" xmlns:sodipodi="http://sodipodi.sourceforge.net/DTD/sodipodi-0.dtd" inkscape:output_extension="org.inkscape.output.svg.inkscape"
	 xmlns="http://www.w3.org/2000/svg" xmlns:xlink="http://www.w3.org/1999/xlink" x="0px" y="0px" viewBox="40 252.9 379 370.6"
	 style="enable-background:new 40 252.9 379 370.6;" xml:space="preserve">
<defs>
	
	
		<inkscape:perspective  id="perspective14" inkscape:persp3d-origin="267.3215 : 174.17533 : 1" sodipodi:type="inkscape:persp3d" inkscape:vp_y="0 : 1000 : 0" inkscape:vp_z="534.64301 : 261.263 : 1" inkscape:vp_x="0 : 261.263 : 1">
		</inkscape:perspective>
</defs>
<sodipodi:namedview  id="base" inkscape:pageshadow="2" inkscape:window-width="1920" inkscape:window-y="49" inkscape:current-layer="svg2" inkscape:pageopacity="0.0" inkscape:window-x="0" inkscape:window-height="1125" inkscape:showpageshadow="true" pagecolor="#ffffff" showgrid="false" inkscape:cx="-210.23733" guidetolerance="10.0" borderlayer="false" gridtolerance="10.0" showborder="true" objecttolerance="10.0" inkscape:zoom="0.63" bordercolor="#666666" inkscape:cy="453.99733" borderopacity="1.0">
	</sodipodi:namedview>
<g id="g2385" transform="translate(0.1369881,-1.4614463)">
	<g id="Layer_1" transform="translate(0,42.000121)">
		<g id="g5">
			<path id="path7" d="M125.5,426.6c-2.4,0.2-5.6,1.3-7.8,5.1c-1.7,3.1-5.8,3.6-7.7,3c-3.2-1.1-7.2-1.8-11.2,1
				c-3.9,2.8-8.2,0.7-7.4-4.4c0.7-5.1,2.6-9.7,7.5-12.5c10.7-6.2,3.3-10.4,9.1-16.6c5.9-6.2,4.6-8.1,4.4-16.5
				c-19.9-3-31.2-8.7-43.8-24.4c-12.6-15.7-17.5-28.7-18.8-48.4c-1.3-19.7-0.2-32.5,8.3-48.9s17.5-24.2,33-32.4
				c15.5-8.2,30.8-10.1,44.9-9.9c14.1,0.2,23.5,1.3,31.4,5.8c8,4.5,15.2,10.3,19.9,10.3c4.6,0,7.8-1.2,10.1-2.9
				c0.6,15.3-13.2,16.6-25.5,16.9c-12.3,0.3-19.9-4.8-31.2-2.9c-11.3,1.9-29.9,7.1-38.9,22.8s-9.4,21.3-8.6,34.5
				c0.8,13.2,12.1,23,18.5,23.2c6.4,0.1,7.8-1.7,13.5-5.4c5.6-3.7,34.3-39.1,44-47.1c9.8-8,19.4-10.4,29.8-10.6s13.1,0.2,21.5,3.7
				c8.4,3.4,13.6,9.8,20.3,13.7c3.5-2,5.6-5.1,8.8-7.4c11.4-8.3,17.3-10.5,30.8-9.2c7.8,0.8,17.6,5.2,23.4,10.3
				c10.4,9,19,21.6,25.9,31.2c5.4,7.4,11.8,16.4,20.8,19.1c9.9,3,17.4-9.8,18.5-16.9c0.6-4,1.4-7.6,1.4-12c0-4.4-0.4-9.8-1.7-14.5
				c-1.3-4.6-3.5-9.2-5.8-13.1c-3.9-6.2-10.2-12.7-16.8-16.1c-3.7-1.9-12.4-5.3-17.9-5.4c-6.7-0.1-11.8,2.1-18,2.5
				c-7.5,0.5-20.9,2.2-26.8-3.6c-3.7-3.7-4.2-6.2-4.9-11c1.7,1.4,4,2.3,6,2.4c4.7,0.4,9.1-3.4,12.9-5.7c3.1-1.8,7.6-5.1,11.7-6.8
				c10.6-4.3,23.5-4.1,34.7-3c8.9,0.9,20.5,4.9,28.3,9.3c7.9,4.5,15.5,12,21,19c7,8.9,10.8,16.5,13.3,27.6
				c3.2,14.2,4.1,35.5,0.2,49.5c-3.1,11-13.3,27.9-22,36.2c-8.6,8.2-18.5,12.1-29.8,14.3c0.4,2.3,0.5,4.4,1.1,6.3
				c0.8,2.7,2.4,5.6,5.7,4.7c1.3-0.4,2-0.7,3.7,0.8c1.7,1.5,0.8,7.3-4,9.9c-2.4,1.3-5,1.6-8.9,1.7c-3.9,0.1-10,0.1-14.3-0.6
				c-4.2-0.7-6.8-4.1-11.5-4.6c-7.3-0.8-12.8-6.1-18.7-9.8c-2.4-1.6-3.3-1.6-4.7-2.4c0.8,2.3,1.8,4.7,2.3,7c0.5,2.2,0.3,4.3,0.6,6.1
				c0.3,1.8,0.8,3.2,1,4.6c1.2,1,1.5,2.6,3.5,3.1c2,0.5,5-0.3,7-0.5c2-0.3,3.3-1.4,4.9-1.1c1.6,0.3,3.1,1.4,4.4,2.5s2.5,1.2,3.5,3.8
				c1.1,2.6,2,8,2.2,11.6c0.1,3.6-0.3,6.9-1.3,9.7c-1.1,2.9-2,4.1-4.9,7c-2.9,2.8-7.6,7-12.3,9.9c0.9,1.3,1.2,2.5,2.6,3.8
				c1.3,1.4,4.2,2.9,5.4,4.4c1.3,1.5,1.9,2.5,1.9,4.2c0,1.6-0.1,3.8-1.4,5.6c-3.3,4.5-7.3,5.3-12,7.4c0.8,5,1.5,8.6,0.3,13.6
				c-0.5,2-1.5,6.7-4.1,7.9c-2.5,1.2-7.4,0.6-10.5,1.1c-3.1,0.5-4.8,1-7.2,1.4c-1.5,2.1-3.6,4.4-4.4,6.3c-0.7,1.9-0.5,2.6,0.1,4.5
				c0.6,1.9,2.8,4.7,3.4,7c0.6,2.3,0.7,4.7,0.2,7c-0.6,2.3-1.5,3.9-3.5,5.9c-1.9,2-5.7,3.6-7.6,5.2c-1.9,1.6-3.8,1.8-3.3,4.5
				c0.7,3.7,6.1,9.7,10,11.2c2.3,0.9,5.5,0.6,8.4-0.6c-0.2,3.2-2.9,5.3-4.7,7.4c4.8-1.4,9.6-4,12.8-7.6c-1,3.1-4.5,8-9.7,12.3
				c-5.2,4.3-5.2,3.4-7.7,5.1c4.7,0.9,9.1,0.7,12.7,0c-2,1.1-5.3,2.7-9.6,3.1c-4.3,0.5-7,0.1-10.9-0.8c-3.9-1-7.5-4.5-12.2-7
				c0.5,1.8,0.8,3.9,2.8,5.7c2,1.8,5,2.7,8.2,4.3c-4.1-0.5-8.4-0.6-12.4-1.5c-3-0.7-5-1.3-7.1-2.4c-2.2-1.1-3.8-2.6-5.8-4
				c0.9,1.8,1.2,3.8,2.8,5.3c1.6,1.5,4.1,2,6.2,3c-2.2,0-4.2,0.4-6.5-0.1c-2.2-0.6-4.3-1.4-6.6-3.2c-2.3-1.7-4.7-3.8-6.7-6
				c-2-2.2-4.4-4.9-5.2-6.9c-0.7-2,0.4-3.4,0.7-5.1c-1.4,0.9-3,1.4-4.1,2.7c-1,1.3-2,2.5-1.5,4.8c0.5,2.3,2.6,5,4,7.6
				c-4.4-3.6-6.9-5-7.9-9.4c-1-4.1,1.6-7.8,3.5-10.9c1-1.5,2.4-3,3.3-4.4c-2-2-4.3-3.6-6-5.9c-1.7-2.2-2.4-5.2-4.2-7.4
				c-1.7-2.1-4.1-3.5-6.1-5.2c1.8,3.9,4.8,8.6,5.4,11.6c0.6,3-0.7,4.8-1.8,6.4c-1.1,1.6-2.8,2-4.4,3c-1.6,1-4.2,0.2-5.1,1.7
				c-1,1.5-1.2,3.7-0.3,5.1l3.8,6c-1.4-0.7-3.8-2.8-4.9-4.2c-1.1-1.5-2.8-2.8-3-4.8c-0.2-2-0.3-3.7,0.9-5.4c1.3-1.8,4.8-2.3,6.3-3.7
				s2.4-2.2,2.4-4c-0.1-1.7-1.8-3-3.3-4.1c-4.5-3.4-10.2-6.4-14-10.5c-2.1-2.3-3.2-4.1-3.6-5.7c-0.4-1.6,0-2.8,1.1-4.7
				c1.1-1.9,4.7-4.5,5.2-6.6c0.4-2.1-1.4-2.6-3.1-3.3c-1.7-0.7-4.8,0.4-6.4-0.9c-1.5-1.3,0.5-4-1.3-5.5c-1.7-1.5-5.7-0.7-7.8-2.3
				c-2.1-1.6-2.9-3.6-3.6-5.9s-0.8-4.9-0.3-6.5c0.5-1.7,1.9-2,2.8-2.8s1.6-1.6,0.5-2.9c-1.2-1.3-5,0.1-7.1-1.6
				c-2.2-1.7-0.8-5.7-2.4-7.3c-1.5-1.7-4.3-1-5.8-1.6c-1.5-0.5-2,1.4-2.9-1.6c-0.9-3-0.9-12-2.1-15.3c-1.2-3.3-3.6-0.2-4.7-3.5
				c-1.1-3.3-0.1-8.6-0.6-13.6l-2.2-13.6c-7.8,5.3-13,6.9-21.4,8.4c-0.7,20.6-2.6,32.7,4.4,55.6c7,22.8,21.1,36.3,40.2,55.6
				c-25.2-18.9-37.2-34.2-44.7-53.8C123.3,461.9,124.7,445.5,125.5,426.6z M259.3,418.3c1.9,0.1,4.3,0.6,5.7,1.5
				c1.4,0.9,2.8,1.6,4,2.9c3.1,3.1,5.4,6.9,6.4,11.3c0.7,2.8,0.7,6.3,1,9.6c-0.9-3-1.6-6.1-2.9-8.8c-2.1-4.2-5.7-8.4-10.1-10.3
				c-1.5-0.6-2.4-0.5-3.2-0.4c0.4,0.6,1,1.1,1,2c0,0.9-0.2,2.6-1.7,3.3c-2.4,1.2-5.1,0.3-7-1.3c-1.9-1.7-2.5-4.5-1.5-6.9
				C252.2,418.2,256.6,418.2,259.3,418.3z M235,414.2c0.2-4.9,2-9.1,6.5-11.5c2.3-1.3,5.8-2.9,9.1-3.3c3.1-0.4,10.7-0.1,15.3,2
				c3.5,1.6,5.9,4.1,9,5.9c3.1,1.8,5.3,3,8.2,5.1c4.5,3.1,7.1,6.6,10.2,8.6c1.5,1,3.6,0.8,5.6,1.5c-1.5,0.5-3.6,1-5.2,0.4
				c-2.1-0.7-5-2.6-6.6-3.9c-2.9-2.4-4.3-3.6-7.4-5.4c-1.9-1.1-4.9-2.4-7-3.7c-2-1.3-5.6-4.3-7.6-5.2c-2.5-1.3-7-2-9.8-1.9
				c-3.8,0.1-9.4,0.7-12.3,3.4c-2.9,2.7-4.1,5-3.4,8.5c1.1-1.3,1.8-2.9,3-3.8c2.3-2,4.9-2.1,7.8-1.7c3.2,0.4,4.8,2.3,5.9,5.3
				c-0.7-0.5-2-1.7-3.1-2c-2.4-0.8-4.3-0.6-6.6,0.6c-2.7,1.4-2,3.6-2.3,6c-0.2,1.1-0.6,2-0.9,3c-1-0.3-1.9-0.7-2.7-1.4
				c0,1.1-0.1,2.1,0.1,3.3c0.2,1.2,0.8,2.7,1.3,4.1c-1.9-1.9-3.8-3.6-5-6C235.7,419.5,234.9,416.9,235,414.2z M238.2,378.2
				c1.4-2.1,1.8-5.2,2.6-7.8c-0.3,3.2,0.3,6.8-1.3,9.2c-1.6,2.3-4.4,1.9-6.7,2.6C234.7,380.8,236.9,380.2,238.2,378.2z M205.1,426.2
				c1.8-1.4,6.6-0.3,10.1,0c-2.6,0.7-5.1,1.3-7.7,2c-0.2,0.9-0.1,1.9-0.7,2.6c-0.6,0.7-1.7,1-2.6,1.5
				C204.4,430.1,203.4,427.7,205.1,426.2z M230.4,326.5c2.1,1.2,4.9,2.7,6.7,2.7c1.9,0,2.4-1.2,3.5-2c1.7,5.7,3.8,12,6.7,17.1
				c1.2,2.2,2,1.2,3,3.3c0.9,2.2,1.4,6.6,2.3,9.4c0.9,2.8,2.1,4.8,3.1,7.2c-2.6-3.7-6-8.5-7.5-11.6c-1.5-3.1-0.5-3.4-1.7-6.3
				c-1.2-3-3.6-7.6-5.4-11.3c-1.3,0.2-2.9,0.4-3.8,0.1c-1-0.3-0.8-1.3-1.7-2c-0.9-0.7-2.4-0.4-3.6-1.5
				C230.8,330.6,230.5,328.4,230.4,326.5z M218.9,354.6c2-0.2,4.5,0.4,6.4,0.3c1.9-0.1,3.2-0.6,4.8-0.9c-0.3-2.8,0-8.1-2.6-9.9
				c-1.7-1.2-8.6-0.3-10.5,0.1c-4.2,0.9-9,3.4-13.1,5c3.9-2.7,7.2-5.2,11.9-6.6c2.8-0.8,9.3-1.9,12.2-1.2c1.3,0.4,1.6,0.9,2.4,2
				c2.7,3.8,2.7,7.1,3.4,11.6c0.7,1.1,1.4,1.8,2,2.9c0.6,1.1,0.9,2.9,1,4.3c-0.7-1-0.3-2.3-2.3-3.1c-2-0.8-5-0.1-7.7,0.2
				c2,1.4,2.9,2.8,3,5.7c0.1,3.5-2.9,6-6,6.3c-4.3,0.3-6.5-0.6-8.2-4.3c-0.8-1.6-0.2-3.5-0.3-5.1c-5.2,0.4-5.1,0.2-8.8,3.3
				c2.1,3,3.3,4.7,6.7,6.5c1.9,1,4.1,2,6.4,2.4c2.4,0.4,6.2,0.8,8.7,0.4c2.5-0.4,3.9-1.1,5.7-2.8c1.8-1.7,2-4.1,2.7-6
				c-0.2,1.8-0.4,4.2-1.1,5.5c-2.1,4.1-5.7,5.3-10,5.3c-4.1,0-9.3-0.9-13.1-2.5c-3.1-1.3-8.2-4.9-9.4-8c-0.8-2.1-0.2-4.8-0.3-7.2
				c4.3-2.8,5.3-2.1,10.4-3C215.4,355.5,216.9,354.8,218.9,354.6z M194.1,335.4c0.1-1.7,0.3-1.7,0.5-2.5c-3.9-1-5.4,1.5-7.7,6.2
				c-0.9,1.7,0,2.8-0.9,3.9c-0.9,1.2-2.4,1-3.9,2.1c-1.5,1.1-3,3.2-4.3,4.4c-2.8,2.4-6.7,3.8-10,5.4c2.3-1.7,6.6-4.2,8-6.6
				c0.8-1.3,0.6-3.7,1.8-4.8c1.2-1.2,1.6-1.9,3.1-2.2c1.5-0.3,0.9-2,1.4-3.4c0.5-1.4,1.5-2.4,2.5-3.8s2.3-3.5,4.4-4.2
				c2-0.8,5.2,0.1,6.7-0.4c1.5-0.4,0.7-1.6,1.8-2.2c1.1-0.7,3.3-0.4,4.8-1.1c2.7-1.3,3.9-3.4,5.5-5.7c0.2,4.9,0.2,8.4-1.6,13
				c-2,5.2-4,8.2-9.6,11.4c-1.9,1.1-3.9,1.5-5.5,2.1c0.9-1.3,2.3-1.8,2.8-3.8C194.3,341.1,193.9,337.1,194.1,335.4z M285,359.3
				c-2.7,0.2-3.3-0.2-5.5,1.3c1.2,1.8,2.3,3.6,3.5,5.4C282.9,362.5,283.3,361.8,285,359.3z M278,356.7c3.7-1.6,6.9-2.9,11-3.1
				c1.6-0.1,4.1,0.1,5.8,0.2c1.4-2,3.2-3.7,3.8-6c0.4-1.6,0.2-8.7-0.5-10.6c-2.2-5.4-4.4-5.7-7.4-8.8c-2.2-2.3-2.3-5.7-3-9.6
				c-0.2-1.4-0.9-3.2-1.3-4.7c-4-0.7-8.3-0.9-12.9-0.7c2.2-2.1,4.4-4.1,5-7.3c0.6-3.2,0.1-7.1-1.7-10c-1.8-2.9-4.7-5.4-7.4-7.7
				c-2.7-2.3-6.5-4.3-9-6.2c3.3-1.2,6.7-2.9,9.9-3.5c8.4-1.6,15.7,0.9,23.8,5.8c4.7,2.9,8.6,5.6,13.5,10.7
				c4.9,5.2,11,14.6,15.8,20.2c4.8,5.6,8.6,10.1,12.8,13.4c4.2,3.3,7.9,4.3,11.9,6.5l6.2,6.6l5-6.2l8,0.9l1.7-9l7.4-2l-1.2-12.2
				l5.3-3.8l-4-7.6l4.1-8.3l-5.3-9.5l2-9.1L371,270l-0.8-9.7l-8.5-3.3l-3.4-8.4l-9.6-0.1l-4.7-6.3l-6.5,0.5l-7.2-0.8l-4.1-3
				l-5.9,3.9l-7.2-3.7l-14.2,5.4l9.3-8.1l9.6-1.5l7.4-1.9l9.9,3.3l8.7-2.2l8.4,5l8.9-0.5l4.4,7.9l8.9,1l4.8,8.7l5.6,3.1l1.5,11.2
				l5,4.7l-2.2,9.8l5.9,7.4l-5.5,8l5.9,5l-7.5,6.7l7.6,7.9l-9.2,3l6,8.5l-7.5,1.3l4.9,9.3l-8.5-0.1l4.3,7l-9.3-1.1l2.2,10.1l-7-6.2
				l-2.4,12.2l-4.8-8.8l-2.6,10.9l-6-8.1l0.2,11.5l-6.6-10.3c1.4,5.8,1.1,12.3,5,17.8c11.9-1.6,19.7-4.6,28.8-13.4
				c8.3-8,18.2-24.7,20.9-35.2c3.1-12.1,3.2-34.2,0.1-46.5c-2.9-11.8-6.7-17.5-13.4-27.1c-6.5-6.9-12.8-14.1-21-19
				c-12-7.2-27.4-9.1-41.1-8.9c-7.6,0.1-12.7,1.6-17.2,3.2c-7.9,2.9-14.3,9.2-22.3,12.3c-2.6,1-4.7,1-6.8-0.1c2,4.1,4.2,5.9,9.3,7.4
				c3.7,1.1,12.4,0.4,18.4-0.2c6.5-0.6,9.8-2.5,18.6-2.4c8.6,0.1,15.4,3.4,19.1,5.5c7.7,4.4,13.2,9.2,17.9,16.9
				c2.6,4.2,4.5,9,5.8,13.9c1.3,4.9,1.9,10.3,1.9,15.1c0.1,4.8-0.3,9-1.4,13.3c-2.7,10-8.7,20.3-21.1,18.7c-7.6-1-19-15.2-22.8-20.4
				c-7.7-10.5-15.6-22.1-25.3-30.9c-5.9-5.3-14-9-21.9-9.7c-14.9-1.4-19.3,1.5-30.5,10.7c2.3,0.7,4.5,1.1,6.8,2.2
				c5.2,2.3,9.9,5.4,14.1,9.2c4.3,4.1,6.3,6.6,6.4,12.4c0.1,3.9-3.1,7-6,9.7c-1.8,1.7-4.1,3.3-5.6,4.6c-1.9,1.8-4.3,3.7-1.9,6.5
				c0.9,1.1,2.5,1.8,3.8,2.8c2.1,1.6,1.1,7.4-1.6,8.9c-3.5,2-7.8,1.7-10.7-0.9c3.7-0.6,6-1,5.9-4.1c-0.1-1.7-2.3-3.2-4.5-4.2
				c-5.3-2.4-9.2-2-14.5-5.8c-5.3-3.8-5.4-5.9-6.8-11.9c-2.5,0.3-4.9,0.3-8.3,1.5c-3.4,1.1-7.2,3.8-10.3,4.5
				c-7.8,1.7-9.3,1.2-13.6,0.1c-7.5-1.9-17.3,1.4-27,4.5c-1.6,0.5-8.1,0-12.5,1.6c-6.8,2.4-16.3,8.2-21.8,12.8
				c-8.3,7-19.3,28-25.5,52.2c-0.7,7.3,1.4,12.3-3.2,15.9c-4.6,3.6-4.5,12.8-6.1,15.3c-1.6,2.6-3.4,1.4-6.8,5c-3.4,3.6-5.1,3-5,9.8
				c2.9-1.9,7.1-4.1,10.9-4.3c3.3-0.1,3.3,4.2,11.8-4.1c4.5-4.5,13.2-4.6,19.2-6.6c6-2,16.9-6,27.8-18.2
				c10.9-12.2,16.1-25,18.2-43.5c0.3,3.3,0.9,7-0.5,16c-1.4,9.1-4.4,19.2,1.9,31.4l4,7.6c-2.4-3.2-7-8.5-8.4-12.3l-3.2-8.7
				c-7.2,11.3-8.8,13.3-18.8,21.4c-0.4,5-0.5,10.2,1.1,15c1.6,4.8-1,10.3,0.3,13.5c1.2,3.2,4.1,1.4,5.1,4.6c0.9,3.2-0.5,9.5,1,12.6
				c1.5,3.1,5,1.2,6.8,2.2c1.7,1,2.3,2.4,3.2,3.7c0.9,1.3-0.4,4.5,1.5,5.5c1.9,1,4.8,0.2,6.8,1.1c2,1,2.3,3.3,1.8,5.4
				c-0.5,2.1-2.6,3.1-3.5,5.2c-0.9,2.1-0.8,3.6,0.3,5.6c1.1,2,3.6,3,6,4c2.4,1,5.9,0.4,8.4,1.8c2.5,1.4,4.8,4.1,6.1,6.1
				c1.3,2,1.7,3.4,1.6,5.5c-0.1,2.1-0.9,4.5-2,6.5s-3.6,4.5,0.3,8.3c3.8,3.8,3.7,2.2,5.9,4.7c-0.2-4.3-2-7.8-0.7-11.1
				c1.3-3.2,5.2-3.8,7.3-5.3c2.1-1.5,3.3-3.5,4.9-5.2c0,2.2,0.2,4.6,0,6.3c-0.5,3.4-1.5,6.5,3.6,7c2.3,0.2,4.5-1.2,6.9-2.1
				c-1.3,2.3-3.5,4.1-3.8,6.8c-0.3,2.7,0.1,5.7,1.9,8.4c1.9,2.7,5.1,4.7,7.5,6.3c2.4,1.6,3.6,1.7,5.5,2.6c0.1,2.7-0.4,5.5-0.1,8
				c0.3,2.5,1.1,4.7,2.5,6.8c1.5,2.1,3.8,3.3,6,4.8c-1.2-2.8-3.6-5.5-3.6-8.4c0-2.9,0.9-5,3.8-7.6c2.9-2.6,9.6-4.9,12.8-7.4
				c3.2-2.5,4.2-4.1,5.3-6.6c1.1-2.5,0.8-6.4,1-8.7c1,3.1,1.2,4.1,1.5,7.3c0.3,3.2-1.9,7.8-2.8,10.2c3.9-1.9,6.4-4.9,7.7-7.9
				c0.8,0.5,0.4,1.9,0.7,4.5c1.4-1.4,3-2.5,4.4-3.8c1.4-1.3,2.9-2.5,3.6-4.3c0.7-1.8,0.4-3.8-0.1-5.9s-2.9-4.6-4.2-6.9
				c-1.3-2.3,0.2-4.6,0.1-7.4c-2.6-0.4-4.7-1.7-7.7-1.3c-2.9,0.4-6.3,3.7-9.3,3.8c-3,0-4.7-2.8-7.2-3.6c-2.5-0.8-5-0.7-7.4-1
				c3.1-3,15.3-4.4,23.7-5.8c7.3-1.2,14.6-1.9,22-2c3.3,0,7.6,1,9.9,0.4c2.3-0.7,1.8-2.2,2.5-3.9c1.9-4.8,1-9-0.1-13.9
				c-6.7-0.8-13.6-1.7-20.3-1.2c-6.6,0.5-14.4,3.6-21.1,3.8c-5.9,0.2-14.6-1.1-19.7-4.2c-6.2-3.8-11-11.9-12.7-14.5
				c-2.8-4.2-6.3-12.5-8.4-16.3c-2.1-3.8-2.6-4.9-4.4-6.4c-1.8-1.6-4.2-1.7-6.3-2.6c2.4,0.2,5-0.5,7.2,0.7c3.3,1.9,7,9.7,9,13.1
				c2.2-7.3,1.7-10.1,7.9-14.2c-5.1,5.7-5.2,10-6.4,16.6c4.2,6.9,10.1,17.9,17.7,21c2.8,1.1,7.5,1.8,10.5,2.2
				c9.3,1.2,18.3-1.8,27.4-4.1c6.7-1.6,13.5-1,21.6-0.5c2.8,0.2,9.3-1.5,10.6-4.3c0.7-1.5,0.7-3.3-0.4-4.9c-1-1.6-3.8-2.4-5.3-3.8
				c-1.5-1.4-2.4-3.2-3.5-4.7c-6.2,1.2-11.3,1.6-15.9,1.8c3.3-1.4,6.5-2.1,9.9-3.5c3.4-1.3,7.3-3.6,10.1-5.4c2.8-1.8,4.5-2.9,6.6-5
				c2-2.1,4.6-4.3,6.1-6.9c1.5-2.6,1.7-5.5,1.8-8.7c0.1-3.2-0.1-7.8-1.3-10.4c-1.2-2.6-3.6-3.4-5.6-4c-1.9-0.6-3.2,0.9-5.2,1.1
				c-2,0.2-3.9,1.5-6.8,0.1c-2.9-1.4-6.3-4.1-9.3-8.3c-2.9-4.1-5-10.8-8-16c-5.1-8.9-11.6-17.3-17.7-25.5c-0.5-2-1.3-4.9-1.5-7.6
				c-0.4-4.8-0.5-9.8,1-14.5c1.1-3.6,2.8-7.4,6.6-8.9c1.5-0.6,3.4-0.8,4.8-0.3c1.3,0.5,2.7,2,2.1,3.8c-0.6,1.9-1.9,2-2.8,3
				c-1.5,1.7-2.2,2.9-2.7,4.9c1.7,0,3.9-0.2,5.3,0.2c1.8,0.5,3.5,1.7,4.4,4.2c-2.1-1.9-3.2-2.8-5.9-2.8c-1.2,0-2.7,0.4-4.1,0.6
				c-0.5,1.6-0.8,3.7-1.5,4.9c-0.7,1.3-2.1,1-2.6,2.5C277.7,352.3,277.7,354.8,278,356.7z M296.6,354.5c0.8,0.3,1.1,0.4,2.2,1.2
				c1,0.8,2.5,1.6,3.3,3.5c0.8,1.9,0.8,4.8,0.6,6c-0.7-0.2-1.7-0.1-2.5-0.7c-0.7-0.6-1.2-2.1-2.1-2.7c-1-0.6-1.8-0.5-2.8-0.6
				c0.5,1.5,0.8,3.1,0.6,4.5c-0.5,3.1-2.3,4.6-5.3,5c-1.3,0.2-3.3-0.3-4.4-0.5c0.5,1.1,1.4,2.1,1.9,3.3c2.5-0.4,4.3-0.3,5.6-0.9
				c1.3-0.6,2.7-2,4.4-2.6c1.7-0.6,3.2-0.6,5.1-0.9c-1.5,1.3-2.4,2.5-3.9,3.8c1.1,3.1,2.1,6.2,3.2,9.4c2.3,1.4,4.4,2.2,7.3,3.9
				c2.9,1.8,6.3,4.9,10,6.6c3.7,1.7,6,2.6,9.9,3.4c3.9,0.7,7,3.9,10.8,4.4c3.8,0.5,11,0.6,14,0.3c3.4-0.3,7.7-2.1,8.1-5.7
				c-2.8,0.7-7.1,0.1-9.3-5.2c-1-2.4-0.5-6.7-2-9.5c-1.5-2.8-3.5-3.7-6-7.1c-2.5-3.4-6.5-8.8-8.7-13.4c-2.3-4.6-2.8-9.8-4.7-13.9
				c-1.9-4.1-4.8-7.4-7-10.6c-4.9-6.9-8.8-11.7-16.8-15.2c-3.9-1.7-8.3-2.1-12.4-3.2c-1.7,0.8-4,1.6-4.4,3.5c-0.4,2,0.4,4.9,1.8,6.3
				c2.4,2.5,5.9,5.1,7.3,9c0.9,2.5,1.2,10.9,0.4,13.2C300,351.5,298.2,352.9,296.6,354.5z M297.4,374.4c-0.7,0.6-1.3,1.3-2.5,1.8
				c-1.2,0.5-2.8,0.7-4.4,1.1c2.2,3.5,4.6,7,6.7,10.6c2.1,3.6,4,7.6,6,11.5c-0.1-2.2,0-4.5-0.3-6.6c-0.3-2-1.2-3.8-2.2-6.9
				C299.8,382.9,298.7,378.7,297.4,374.4z M237.4,298.1c-0.3,3.4,0.3,8.8,1,12.1c0.8,4,1.7,6.1,4.9,8.5c5.9,4.4,9.7,3.7,14.3,6.2
				c2.2,1.2,4.9,3.3,5.7,5.4c0.8,2.2-0.5,4.5-2.2,5.4c2.9,0.4,6.1-2.8,4.8-6.2c-0.7-1.6-3.8-2.4-4.8-4c-1-1.7-1-3.4-0.5-5.1
				c0.8-3,6.8-5.8,9-8.2c3.3-3.7,4.5-6.8,2.7-11.5c-2.6-6.7-12.6-12-18.6-14.7c-2.8-1.2-4.3-1.3-6.4-1.9c4.4,2.6,9,4.6,11.2,10.4
				c1.9,4.8,0.2,6.6,0.3,10.8c0,1.9,2.6,2.9,3.7,4.1c1,1.1,0.9,1.9,0.1,3.3c-0.1-1.3-0.7-2.3-1.7-3c-1.7-1.2-3.5-0.9-4.4-3.4
				c-1.4-3.7,1.3-7.2-1.7-11.4c-2.3-3.1-5.3-6.6-9.4-6.7c-1.9,0-3.4,0.2-5.4,0.9l-2.7-3.3l-0.1,0c-5.6-5.1-9.4-9.3-17.2-12.8
				c-7.8-3.5-11.7-4-20.7-3.8c-9,0.2-17.9,0.9-28.3,9.9c-10.4,9-37.2,43.3-43.7,47.6c-6.5,4.3-7.9,5.8-16.1,5.8S90.5,321.1,90,306.7
				c-0.5-14.4-0.7-19.5,9.3-36.7c10-17.3,28-22.6,41.5-24.4c13.4-1.8,21.5,2.9,31.4,3c9.9,0,19.7-1.7,22.6-9.6
				c-1.4,0.8-3.3,1.8-8.6,1.5s-12.7-6.5-21-10.6c-8.3-4.1-17.6-4.6-29.4-4.8c-11.9-0.2-26.7,0.7-41.3,8.6S69.6,250,61.1,265.5
				c-8.5,15.5-9.8,28.2-8.4,46.9c1.4,18.8,7.2,32.7,18.3,46.5s22.3,20.5,42.4,23l4.2-18.6l-7.5,10.8l0.2-12l-6.8,8.5l-3-11.5
				l-5.5,9.2l-2.7-12.8l-8,6.5l2.5-10.6l-10.6,1.2L81,345l-9.7,0.1l5.6-9.8l-8.6-1.4l6.8-8.9l-10.5-3.1l8.7-8.3l-8.6-7l6.7-5.2
				l-6.3-8.4l6.7-7.8l-2.5-10.3l5.7-5l1.7-11.8l6.4-3.2l5.5-9.2l10.2-1.1l5-8.3L114,237l9.6-5.2l10,2.3l11.4-3.4l8.4,2l11,1.6
				l10.6,8.5l-16.2-5.7l-8.2,3.9l-6.8-4.1l-4.7,3.2l-8.2,0.8l-7.4-0.5l-5.4,6.6l-11,0.1l-3.9,8.8l-9.8,3.4l-0.9,10.2l-7,5.5l2.3,9.6
				l-6,9.9l4.6,8.7l-4.6,8l6.1,4l-1.4,12.8l8.4,2.1l1.9,9.5l9.2-1l5.7,6.5l7.1-6.9c12.9-6.4,18.2-10,28.2-20.9
				c11.4-12.4,18-23.8,33.2-32.2c10.9-6.1,19.8-8.2,32.1-6.1c11.5,2,15.4,8.9,23.8,16.2c0.9-1.6,1.1-2.1,2.6-3.3
				C238.3,293.9,237.6,296.1,237.4,298.1z"/>
		</g>
	</g>
	<g id="flowRoot2387" transform="matrix(1.0344895,0,0,1,-4.5464996,-2.3517522)">
	</g>
</g>
</svg>
